<svg id="Layer_1" data-name="Layer 1" xmlns="http://www.w3.org/2000/svg" viewBox="0 0 15 10.71"><defs><style>.cls-1{fill:#ff2a31;}.cls-2{fill:#fff;}</style></defs><title>Artboard 1</title><path class="cls-1" d="M15,4.1q0-.45-.07-1.14a10.37,10.37,0,0,0-.18-1.23,2,2,0,0,0-.58-1,1.78,1.78,0,0,0-1-.49A54.88,54.88,0,0,0,7.5,0,54.88,54.88,0,0,0,1.88.21a1.77,1.77,0,0,0-1,.49,2,2,0,0,0-.58,1A9.25,9.25,0,0,0,.08,3Q0,3.65,0,4.1T0,5.36q0,.8,0,1.26T.08,7.76A10.37,10.37,0,0,0,.26,9a2,2,0,0,0,.58,1,1.78,1.78,0,0,0,1,.49,54.88,54.88,0,0,0,5.62.21,54.88,54.88,0,0,0,5.62-.21,1.77,1.77,0,0,0,1-.49,2,2,0,0,0,.58-1,9.25,9.25,0,0,0,.19-1.23Q15,7.06,15,6.61t0-1.26Q15,4.55,15,4.1Z"/><path class="cls-2" d="M10.46,5.81,6.18,8.49a.48.48,0,0,1-.28.08.58.58,0,0,1-.26-.07A.5.5,0,0,1,5.36,8V2.68a.5.5,0,0,1,.28-.47.5.5,0,0,1,.54,0l4.29,2.68a.48.48,0,0,1,.25.45A.48.48,0,0,1,10.46,5.81Z"/></svg>